<svg width="12" height="12" viewBox="0 0 12 12" fill="none" xmlns="http://www.w3.org/2000/svg">

<path d="M4.5 9.5C2 10.25 2 8.25 1 8M8 11V9.065C8.01876 8.82658 7.98654 8.5869 7.90551 8.3619C7.82447 8.13689 7.69647 7.93171 7.53 7.76C9.1 7.585 10.75 6.99 10.75 4.26C10.7499 3.56191 10.4813 2.8906 10 2.385C10.2279 1.77425 10.2118 1.09917 9.955 0.499999C9.955 0.499999 9.365 0.324999 8 1.24C6.854 0.92941 5.646 0.92941 4.5 1.24C3.135 0.324999 2.545 0.499999 2.545 0.499999C2.28819 1.09917 2.27207 1.77425 2.5 2.385C2.01506 2.89435 1.74626 3.57173 1.75 4.275C1.75 6.985 3.4 7.58 4.97 7.775C4.8055 7.94498 4.67863 8.1477 4.59765 8.36996C4.51668 8.59222 4.4834 8.82903 4.5 9.065V11" stroke="black" stroke-linecap="round" stroke-linejoin="round"/>


</svg>
