<svg width="12" height="12" viewBox="0 0 12 12" fill="none" xmlns="http://www.w3.org/2000/svg">
<g clip-path="url(#clip0_3_10)">
<path d="M11 8.45999V9.95999C11.0006 10.0992 10.9721 10.2371 10.9163 10.3647C10.8605 10.4923 10.7787 10.6068 10.6761 10.7009C10.5735 10.7951 10.4523 10.8667 10.3204 10.9113C10.1885 10.956 10.0487 10.9725 9.91003 10.96C8.37144 10.7928 6.89353 10.2671 5.59503 9.42499C4.38694 8.65732 3.3627 7.63307 2.59503 6.42499C1.75002 5.12059 1.22415 3.63548 1.06003 2.08999C1.04753 1.95172 1.06397 1.81237 1.10828 1.6808C1.15259 1.54923 1.22381 1.42833 1.31741 1.3258C1.41101 1.22326 1.52493 1.14134 1.65192 1.08525C1.77892 1.02915 1.9162 1.00012 2.05503 0.999987H3.55503C3.79768 0.997599 4.03292 1.08353 4.21691 1.24175C4.40089 1.39998 4.52107 1.61971 4.55503 1.85999C4.61834 2.34002 4.73575 2.81135 4.90503 3.26499C4.9723 3.44395 4.98686 3.63844 4.94698 3.82543C4.9071 4.01241 4.81446 4.18404 4.68003 4.31999L4.04503 4.95499C4.75681 6.20676 5.79325 7.24321 7.04503 7.95499L7.68003 7.31999C7.81597 7.18556 7.9876 7.09291 8.17459 7.05303C8.36157 7.01316 8.55607 7.02772 8.73503 7.09499C9.18866 7.26426 9.65999 7.38168 10.14 7.44499C10.3829 7.47925 10.6047 7.60159 10.7633 7.78873C10.9219 7.97588 11.0061 8.21478 11 8.45999Z" stroke="black" stroke-linecap="round" stroke-linejoin="round"/>
</g>
<defs>
<clipPath id="clip0_3_10">
<rect width="12" height="12" fill="white"/>
</clipPath>
</defs>
</svg>
